<svg width="1299" height="227" viewBox="0 0 1299 227" fill="none" xmlns="http://www.w3.org/2000/svg">
<path d="M180.236 67.6504C184.981 67.6504 188.35 72.2726 186.789 76.754C183.212 87.0196 179.199 97.1686 174.748 107.201C168.986 120.189 162.346 132.592 154.826 144.408C147.404 156.127 139.055 167.016 129.777 177.074C120.598 187.035 110.393 195.678 99.1621 203.002C88.0293 210.229 75.8711 215.941 62.6875 220.141C49.6016 224.242 35.3926 226.293 20.0605 226.293C17.4238 226.293 14.9336 225.805 12.5898 224.828C10.2461 223.852 8.19531 222.533 6.4375 220.873C4.67969 219.115 3.3125 217.113 2.33594 214.867C1.35938 212.523 0.871094 210.033 0.871094 207.396V67.6504H38.957V186.742C48.2344 186.742 57.1211 184.74 65.6172 180.736C74.2109 176.732 82.3164 171.459 89.9336 164.916C97.5508 158.275 104.582 150.756 111.027 142.357C117.57 133.959 123.381 125.365 128.459 116.576C133.537 107.689 137.834 98.998 141.35 90.502C144.963 82.0059 147.648 74.3887 149.406 67.6504H180.236Z" fill="black"/>
<path d="M375.871 172.533C375.871 179.076 375.041 184.984 373.381 190.258C371.721 195.434 369.523 200.023 366.789 204.027C364.055 207.934 360.881 211.303 357.268 214.135C353.654 216.869 349.846 219.115 345.842 220.873C341.936 222.631 337.932 223.949 333.83 224.828C329.826 225.609 326.018 226 322.404 226H253.703C248.43 226 242.668 225.072 236.418 223.217C230.168 221.361 224.357 218.334 218.986 214.135C213.713 209.838 209.27 204.32 205.656 197.582C202.141 190.746 200.383 182.396 200.383 172.533V120.971C200.383 111.205 202.141 102.953 205.656 96.2148C209.27 89.3789 213.713 83.8613 218.986 79.6621C224.357 75.3652 230.168 72.2891 236.418 70.4336C242.668 68.5781 248.43 67.6504 253.703 67.6504H322.404C332.17 67.6504 340.471 69.4082 347.307 72.9238C354.143 76.4395 359.66 80.8828 363.859 86.2539C368.059 91.5273 371.086 97.2891 372.941 103.539C374.895 109.789 375.871 115.6 375.871 120.971V172.533ZM337.785 121.264C337.785 115.99 336.467 112.084 333.83 109.545C331.193 107.006 327.385 105.736 322.404 105.736H253.996C248.918 105.736 245.061 107.055 242.424 109.691C239.787 112.23 238.469 115.99 238.469 120.971V172.533C238.469 177.514 239.787 181.322 242.424 183.959C245.061 186.596 248.918 187.914 253.996 187.914H322.404C327.58 187.914 331.438 186.596 333.977 183.959C336.516 181.322 337.785 177.514 337.785 172.533V121.264Z" fill="black"/>
<path d="M477.971 226H460.979C455.51 226 449.65 225.072 443.4 223.217C437.248 221.361 431.486 218.334 426.115 214.135C420.744 209.838 416.301 204.32 412.785 197.582C409.27 190.746 407.512 182.396 407.512 172.533V20.707C407.512 9.66134 416.466 0.707031 427.512 0.707031H445.598V172.533C445.598 177.221 447.062 180.98 449.992 183.812C452.922 186.547 456.584 187.914 460.979 187.914H477.971V226Z" fill="black"/>
<path d="M665.91 173.559C665.91 178.832 664.982 184.545 663.127 190.697C661.271 196.752 658.244 202.416 654.045 207.689C649.943 212.865 644.523 217.211 637.785 220.727C631.145 224.242 623.039 226 613.469 226H544.768C539.494 226 533.781 225.072 527.629 223.217C521.574 221.361 515.91 218.383 510.637 214.281C505.461 210.082 501.115 204.662 497.6 198.021C494.084 191.283 492.326 183.129 492.326 173.559C492.326 168.285 493.254 162.572 495.109 156.42C496.965 150.268 499.943 144.604 504.045 139.428C508.244 134.154 513.664 129.76 520.305 126.244C527.043 122.729 535.197 120.971 544.768 120.971H613.469V157.299H544.768C539.592 157.299 535.588 158.91 532.756 162.133C529.924 165.258 528.508 169.164 528.508 173.852C528.508 178.832 530.119 182.738 533.342 185.57C536.662 188.305 540.568 189.672 545.061 189.672H613.469C618.645 189.672 622.648 188.109 625.48 184.984C628.312 181.859 629.729 177.953 629.729 173.266V120.092C629.729 115.111 628.166 111.156 625.041 108.227C622.014 105.297 618.156 103.832 613.469 103.832H499.826V67.6504H613.469C618.742 67.6504 624.406 68.5781 630.461 70.4336C636.613 72.2891 642.277 75.3164 647.453 79.5156C652.727 83.6172 657.121 89.0371 660.637 95.7754C664.152 102.416 665.91 110.521 665.91 120.092V173.559Z" fill="black"/>
<path d="M873.918 226H835.832V138.109C835.832 133.129 834.953 128.686 833.195 124.779C831.535 120.775 829.24 117.357 826.311 114.525C823.381 111.693 819.914 109.545 815.91 108.08C812.004 106.518 807.756 105.736 803.166 105.736H736.516V226H698.43V86.5469C698.43 83.9102 698.918 81.4688 699.895 79.2227C700.871 76.8789 702.238 74.877 703.996 73.2168C705.754 71.459 707.805 70.0918 710.148 69.1152C712.492 68.1387 714.982 67.6504 717.619 67.6504H803.459C808.244 67.6504 813.273 68.1875 818.547 69.2617C823.918 70.3359 829.191 72.0938 834.367 74.5352C839.641 76.8789 844.621 79.9062 849.309 83.6172C854.094 87.2305 858.293 91.6738 861.906 96.9473C865.617 102.123 868.547 108.129 870.695 114.965C872.844 121.801 873.918 129.516 873.918 138.109V226Z" fill="black"/>
<path d="M1046.62 105.736H980.119V226H941.594V105.736H892.082V67.6504H941.594V13.9414C941.594 6.76171 947.414 0.941406 954.594 0.941406H980.119V67.6504H1026.62C1037.67 67.6504 1046.62 76.6047 1046.62 87.6504V105.736Z" fill="black"/>
<path d="M1241.45 120.092C1241.45 125.365 1240.52 131.078 1238.66 137.23C1236.81 143.285 1233.78 148.949 1229.58 154.223C1225.48 159.398 1220.06 163.744 1213.32 167.26C1206.68 170.775 1198.58 172.533 1189.01 172.533H1121.3V136.352H1189.01C1194.18 136.352 1198.19 134.789 1201.02 131.664C1203.85 128.441 1205.27 124.486 1205.27 119.799C1205.27 114.818 1203.65 110.912 1200.43 108.08C1197.31 105.248 1193.5 103.832 1189.01 103.832H1120.3C1115.13 103.832 1111.12 105.443 1108.29 108.666C1105.46 111.791 1104.04 115.697 1104.04 120.385V173.559C1104.04 178.637 1105.61 182.592 1108.73 185.424C1111.96 188.256 1115.91 189.672 1120.6 189.672H1299.01V226H1120.3C1115.03 226 1109.32 225.072 1103.17 223.217C1097.11 221.361 1091.45 218.383 1086.17 214.281C1081 210.082 1076.65 204.662 1073.14 198.021C1069.62 191.283 1067.86 183.129 1067.86 173.559V120.092C1067.86 114.818 1068.79 109.154 1070.65 103.1C1072.5 96.9473 1075.48 91.2832 1079.58 86.1074C1083.78 80.834 1089.2 76.4395 1095.84 72.9238C1102.58 69.4082 1110.73 67.6504 1120.3 67.6504H1189.01C1194.28 67.6504 1199.94 68.5781 1206 70.4336C1212.15 72.2891 1217.81 75.3164 1222.99 79.5156C1228.26 83.6172 1232.66 89.0371 1236.17 95.7754C1239.69 102.416 1241.45 110.521 1241.45 120.092Z" fill="black"/>
</svg>
